<svg width="24" height="24" viewBox="0 0 24 24" fill="none" xmlns="http://www.w3.org/2000/svg">
<path d="M19.8822 4.88109L19.1463 4.14515C18.9383 3.93716 18.5543 3.96917 18.3143 4.25711L15.7541 6.80108C14.602 6.30514 13.3382 6.06514 12.0101 6.06514C8.05798 6.08107 4.6342 8.38504 2.98608 11.6973C2.89006 11.9052 2.89006 12.1612 2.98608 12.3372C3.75402 13.9052 4.90609 15.2012 6.34609 16.1772L4.2501 18.3051C4.0101 18.5451 3.97809 18.9291 4.13813 19.1371L4.87408 19.8731C5.08207 20.081 5.46606 20.049 5.70606 19.7611L19.754 5.71321C20.058 5.47334 20.09 5.08938 19.882 4.88137L19.8822 4.88109ZM12.8581 9.71298C12.5861 9.64896 12.2981 9.56901 12.0261 9.56901C10.6661 9.56901 9.57818 10.657 9.57818 12.0169C9.57818 12.2889 9.64219 12.5769 9.72215 12.8489L8.65003 13.9049C8.33008 13.345 8.15409 12.7209 8.15409 12.017C8.15409 9.88899 9.86611 8.17697 11.9941 8.17697C12.6982 8.17697 13.3221 8.35295 13.8821 8.67291L12.8581 9.71298Z" fill="#636363" fill-opacity="0.8"/>
<path d="M21.0347 11.6974C20.4747 10.5774 19.7386 9.56945 18.8267 8.75342L15.8507 11.6974V12.0174C15.8507 14.1454 14.1387 15.8574 12.0107 15.8574H11.6907L9.80273 17.7454C10.5068 17.8893 11.2427 17.9854 11.9627 17.9854C15.9149 17.9854 19.3386 15.6814 20.9868 12.3532C21.1307 12.1292 21.1307 11.9053 21.0347 11.6973L21.0347 11.6974Z" fill="#636363" fill-opacity="0.8"/>
</svg>
