<svg width="180" height="59" viewBox="0 0 180 59" fill="none" xmlns="http://www.w3.org/2000/svg">
<path d="M13.3018 34.3896L2.45801 0H8.78765L16.393 24.5148L23.9494 0H30.279L28.12 6.82878L33.6155 24.5148L41.1719 0H47.5015L36.6577 34.3896H30.5243L24.9798 16.8018L19.4352 34.3896H13.3018ZM57.4453 9.48169C65.0507 9.48169 70.1537 14.591 70.1537 22.2058V34.3896H64.2657V32.0314C63.088 33.5544 60.5856 34.8317 57.0037 34.8317C49.889 34.8317 44.7861 29.7224 44.7861 22.1076C44.7861 14.5419 49.889 9.48169 57.4453 9.48169ZM64.2657 22.1567C64.2657 17.5878 61.567 14.8858 57.4944 14.8858C53.3728 14.8858 50.6741 17.5878 50.6741 22.1567C50.6741 26.7256 53.3728 29.4276 57.4944 29.4276C61.567 29.4276 64.2657 26.7256 64.2657 22.1567ZM84.3598 9.38344C92.4559 9.38344 95.6452 15.4753 95.6452 19.7494V34.3896H89.7572V19.8968C89.7572 16.4087 87.2057 14.8366 84.3598 14.8366C81.5139 14.8366 78.9624 16.4087 78.9624 19.8968V34.3896H73.0744V19.7494C73.0744 15.4753 76.2638 9.38344 84.3598 9.38344ZM110.489 9.48169C118.095 9.48169 123.198 14.591 123.198 22.2058V34.3896H117.31V32.0314C116.132 33.5544 113.629 34.8317 110.048 34.8317C102.933 34.8317 97.8299 29.7224 97.8299 22.1076C97.8299 14.5419 102.933 9.48169 110.489 9.48169ZM117.31 22.1567C117.31 17.5878 114.611 14.8858 110.538 14.8858C106.417 14.8858 103.718 17.5878 103.718 22.1567C103.718 26.7256 106.417 29.4276 110.538 29.4276C114.611 29.4276 117.31 26.7256 117.31 22.1567ZM150.75 22.1567V33.407C150.75 39.8919 145.892 44.5099 138.483 44.5099C133.527 44.5099 129.553 42.3974 127.001 39.155L131.81 35.7651C133.135 37.3864 135.147 39.1058 138.532 39.1058C142.605 39.1058 144.862 36.6986 144.862 33.407V31.9823C143.684 33.5053 141.182 34.7826 137.6 34.7826C130.485 34.7826 125.382 29.6733 125.382 22.0584C125.382 14.4927 130.485 9.43256 138.042 9.43256C145.647 9.43256 150.75 14.5419 150.75 22.1567ZM144.862 22.1076C144.862 17.5387 142.163 14.8366 138.091 14.8366C133.969 14.8366 131.27 17.5387 131.27 22.1076C131.27 26.6765 133.969 29.3785 138.091 29.3785C142.163 29.3785 144.862 26.6765 144.862 22.1076ZM152.744 22.1076C152.744 14.5419 157.847 9.48169 165.452 9.48169C173.058 9.48169 178.112 14.5419 178.112 22.1076C178.112 29.7224 173.058 34.8317 165.452 34.8317C157.847 34.8317 152.744 29.7224 152.744 22.1076ZM158.632 22.1567C158.632 26.7256 161.331 29.4276 165.403 29.4276C169.525 29.4276 172.224 26.7256 172.224 22.1567C172.224 17.5878 169.525 14.8858 165.403 14.8858C161.331 14.8858 158.632 17.5878 158.632 22.1567Z" fill="url(#paint0_linear_35_188)"/>
<path d="M59.2258 51.7812H0V52.4517H59.2258V51.7812Z" fill="url(#paint1_linear_35_188)"/>
<path d="M69.8232 53.3228C69.8232 52.4541 69.9537 51.6676 70.2146 50.9643C70.4754 50.2605 70.8377 49.6608 71.301 49.165C72.275 48.1308 73.5397 47.6138 75.0943 47.6138C76.6542 47.6138 77.916 48.1308 78.8798 49.165C79.8595 50.2151 80.3493 51.6013 80.3493 53.3228C80.3493 55.0448 79.8595 56.4253 78.8798 57.4647C77.9213 58.4882 76.6595 59 75.0943 59C73.5343 59 72.2696 58.4882 71.301 57.4647C70.316 56.42 69.8232 55.0395 69.8232 53.3228ZM71.4208 53.3151C71.4208 54.5306 71.716 55.5352 72.3073 56.3295C72.9725 57.2146 73.9015 57.6567 75.0943 57.6567C76.287 57.6567 77.2131 57.2146 77.8735 56.3295C78.459 55.5459 78.7518 54.5465 78.7518 53.331C78.7518 52.1049 78.459 51.0949 77.8735 50.3003C77.2131 49.4049 76.287 48.957 75.0943 48.957C73.8962 48.957 72.9672 49.4049 72.3073 50.3003C71.716 51.0949 71.4208 52.0996 71.4208 53.3151ZM89.5887 49.149H86.2427V47.7415H94.5322V49.149H91.1862V58.8723H89.5887V49.149ZM104.507 47.7415H105.601L110.289 58.8723H108.627L107.501 56.0736H102.566L101.448 58.8723H99.8187L104.507 47.7415ZM106.99 54.7942L105.042 49.9166L103.085 54.7942H106.99Z" fill="url(#paint2_linear_35_188)"/>
<path d="M179.912 51.708H120.623V52.3785H179.912V51.708Z" fill="url(#paint3_linear_35_188)"/>
<defs>
<linearGradient id="paint0_linear_35_188" x1="90.2848" y1="0" x2="90.2848" y2="44.5099" gradientUnits="userSpaceOnUse">
<stop stop-color="#FFAE7E"/>
<stop offset="1" stop-color="#FFA46F"/>
</linearGradient>
<linearGradient id="paint1_linear_35_188" x1="29.6129" y1="51.7812" x2="29.6129" y2="52.4517" gradientUnits="userSpaceOnUse">
<stop stop-color="#FFAE7E"/>
<stop offset="1" stop-color="#FFA46F"/>
</linearGradient>
<linearGradient id="paint2_linear_35_188" x1="90.056" y1="47.6138" x2="90.056" y2="59" gradientUnits="userSpaceOnUse">
<stop stop-color="#FFAE7E"/>
<stop offset="1" stop-color="#FFA46F"/>
</linearGradient>
<linearGradient id="paint3_linear_35_188" x1="150.268" y1="51.708" x2="150.268" y2="52.3785" gradientUnits="userSpaceOnUse">
<stop stop-color="#FFAE7E"/>
<stop offset="1" stop-color="#FFA46F"/>
</linearGradient>
</defs>
</svg>
